<svg width="24" height="22" viewBox="0 0 24 22" fill="none" xmlns="http://www.w3.org/2000/svg">
<path d="M3.36328 21.5029H13.1924C13.9801 21.5029 14.5781 21.2881 14.9863 20.8584C15.4017 20.4359 15.6094 19.7985 15.6094 18.9463V11.5449C15.6094 10.6999 15.4017 10.0661 14.9863 9.64355C14.5781 9.21387 13.9801 8.99902 13.1924 8.99902H3.36328C2.57552 8.99902 1.97396 9.21387 1.55859 9.64355C1.15039 10.0661 0.946289 10.6999 0.946289 11.5449V18.9463C0.946289 19.7985 1.15039 20.4359 1.55859 20.8584C1.97396 21.2881 2.57552 21.5029 3.36328 21.5029ZM3.41699 19.8809C3.18783 19.8809 3.00879 19.8092 2.87988 19.666C2.75098 19.5299 2.68652 19.3294 2.68652 19.0645V11.4268C2.68652 11.1618 2.75098 10.9613 2.87988 10.8252C3.00879 10.6891 3.18783 10.6211 3.41699 10.6211H13.1387C13.375 10.6211 13.554 10.6891 13.6758 10.8252C13.8047 10.9613 13.8691 11.1618 13.8691 11.4268V19.0645C13.8691 19.3294 13.8047 19.5299 13.6758 19.666C13.554 19.8092 13.375 19.8809 13.1387 19.8809H3.41699ZM12.1504 9.83691H13.8477V6.2168C13.8477 5.31445 14.0195 4.55534 14.3633 3.93945C14.7142 3.32357 15.1725 2.85807 15.7383 2.54297C16.304 2.22786 16.9235 2.07031 17.5967 2.07031C18.2627 2.07031 18.8786 2.22786 19.4443 2.54297C20.0173 2.85807 20.4756 3.32357 20.8193 3.93945C21.1702 4.55534 21.3457 5.31445 21.3457 6.2168V8.60156C21.3457 8.92383 21.4281 9.16374 21.5928 9.32129C21.7575 9.47884 21.9616 9.55762 22.2051 9.55762C22.4342 9.55762 22.6312 9.48242 22.7959 9.33203C22.9678 9.18164 23.0537 8.93815 23.0537 8.60156V6.44238C23.0537 5.43262 22.9033 4.55176 22.6025 3.7998C22.3018 3.04785 21.8936 2.4248 21.3779 1.93066C20.8623 1.42936 20.2786 1.05697 19.627 0.813477C18.9753 0.569987 18.2985 0.448242 17.5967 0.448242C16.8949 0.448242 16.2181 0.569987 15.5664 0.813477C14.9147 1.05697 14.3311 1.42936 13.8154 1.93066C13.2998 2.4248 12.8916 3.04785 12.5908 3.7998C12.2972 4.55176 12.1504 5.43262 12.1504 6.44238V9.83691Z" fill="white"/>
</svg>
