<svg width="84" height="84" viewBox="0 0 84 84" fill="none" xmlns="http://www.w3.org/2000/svg">
<path d="M77.6615 41.9C81.0517 41.9 83.8461 39.1372 83.3512 35.7833C82.4488 29.6686 80.2006 23.8029 76.7386 18.6216C72.1345 11.7312 65.5907 6.36076 57.9344 3.18945C50.2782 0.0181357 41.8535 -0.811624 33.7257 0.805097C25.5979 2.42182 18.132 6.41241 12.2722 12.2722C6.41241 18.132 2.42182 25.5979 0.805097 33.7257C-0.811624 41.8535 0.0181358 50.2782 3.18945 57.9344C6.36076 65.5907 11.7312 72.1346 18.6216 76.7386C23.8029 80.2006 29.6686 82.4488 35.7833 83.3512C39.1372 83.8461 41.9 81.0517 41.9 77.6615C41.9 74.2712 39.1229 71.5867 35.8052 70.8891C32.1226 70.1149 28.6024 68.642 25.4424 66.5305C20.5709 63.2755 16.7741 58.6491 14.532 53.2362C12.2899 47.8233 11.7033 41.8671 12.8463 36.1209C13.9893 30.3746 16.8106 25.0963 20.9534 20.9534C25.0963 16.8106 30.3746 13.9893 36.1209 12.8463C41.8671 11.7033 47.8233 12.2899 53.2362 14.532C58.6491 16.7741 63.2755 20.5709 66.5305 25.4424C68.642 28.6024 70.1149 32.1226 70.8891 35.8052C71.5867 39.1229 74.2712 41.9 77.6615 41.9Z" fill="white"/>
<path d="M77.6615 41.9C81.0517 41.9 83.8461 39.1372 83.3512 35.7833C82.4488 29.6686 80.2006 23.8029 76.7386 18.6216C72.1345 11.7312 65.5907 6.36076 57.9344 3.18945C50.2782 0.0181357 41.8535 -0.811624 33.7257 0.805097C25.5979 2.42182 18.132 6.41241 12.2722 12.2722C6.41241 18.132 2.42182 25.5979 0.805097 33.7257C-0.811624 41.8535 0.0181358 50.2782 3.18945 57.9344C6.36076 65.5907 11.7312 72.1346 18.6216 76.7386C23.8029 80.2006 29.6686 82.4488 35.7833 83.3512C39.1372 83.8461 41.9 81.0517 41.9 77.6615C41.9 74.2712 39.1229 71.5867 35.8052 70.8891C32.1226 70.1149 28.6024 68.642 25.4424 66.5305C20.5709 63.2755 16.7741 58.6491 14.532 53.2362C12.2899 47.8233 11.7033 41.8671 12.8463 36.1209C13.9893 30.3746 16.8106 25.0963 20.9534 20.9534C25.0963 16.8106 30.3746 13.9893 36.1209 12.8463C41.8671 11.7033 47.8233 12.2899 53.2362 14.532C58.6491 16.7741 63.2755 20.5709 66.5305 25.4424C68.642 28.6024 70.1149 32.1226 70.8891 35.8052C71.5867 39.1229 74.2712 41.9 77.6615 41.9Z" fill="url(#paint0_linear_73_783)"/>
<rect x="56.2841" y="56.2842" width="20.6969" height="21.2789" rx="7.02526" stroke="#FFCC49" stroke-width="9.64" stroke-linecap="round"/>
<defs>
<linearGradient id="paint0_linear_73_783" x1="19.3483" y1="42.8311" x2="79.3059" y2="43.2021" gradientUnits="userSpaceOnUse">
<stop stop-color="#398070"/>
<stop offset="1" stop-color="#009C79"/>
</linearGradient>
</defs>
</svg>
